<?xml version="1.0" encoding="UTF-8"?>
<!DOCTYPE svg PUBLIC "-//W3C//DTD SVG 1.1//EN" "http://www.w3.org/Graphics/SVG/1.1/DTD/svg11.dtd">
<svg xmlns="http://www.w3.org/2000/svg" version="1.1" width="512px" height="512px" style="shape-rendering:geometricPrecision; text-rendering:geometricPrecision; image-rendering:optimizeQuality; fill-rule:evenodd; clip-rule:evenodd" xmlns:xlink="http://www.w3.org/1999/xlink">
<g><path style="opacity:0.989" fill="#621622" d="M 235.5,-0.5 C 248.833,-0.5 262.167,-0.5 275.5,-0.5C 350.732,9.90971 405.566,48.9097 440,116.5C 467.854,182.331 464.188,246.331 429,308.5C 424.111,316.444 418.611,323.944 412.5,331C 423.733,335.233 431.233,343.066 435,354.5C 436.604,374.123 436.937,393.79 436,413.5C 430.25,435.972 415.75,445.972 392.5,443.5C 392.667,457.171 392.5,470.837 392,484.5C 388.309,498.69 379.476,507.69 365.5,511.5C 348.5,511.5 331.5,511.5 314.5,511.5C 297.964,506.786 288.797,495.786 287,478.5C 286.5,466.838 286.333,455.171 286.5,443.5C 224.832,443.667 163.166,443.5 101.5,443C 86.6982,438.531 77.8649,428.698 75,413.5C 74.0626,393.79 74.3959,374.123 76,354.5C 79.7674,343.066 87.2674,335.233 98.5,331C 58.3656,280.03 44.5323,222.53 57,158.5C 71.1211,100.065 103.954,55.5655 155.5,25C 180.653,11.3362 207.319,2.83621 235.5,-0.5 Z"/></g>
<g><path style="opacity:1" fill="#f1f2f7" d="M 236.5,23.5 C 321.483,19.881 382.65,55.881 420,131.5C 444.572,194.676 437.572,254.009 399,309.5C 393.518,316.283 387.685,322.783 381.5,329C 297.5,329.667 213.5,329.667 129.5,329C 81.2574,278.131 66.0907,218.631 84,150.5C 109.876,78.1519 160.709,35.8185 236.5,23.5 Z"/></g>
<g><path style="opacity:1" fill="#631824" d="M 181.5,136.5 C 200.158,135.992 209.325,144.992 209,163.5C 204.613,176.78 195.447,182.613 181.5,181C 165.205,174.113 160.705,162.613 168,146.5C 171.579,141.731 176.079,138.397 181.5,136.5 Z"/></g>
<g><path style="opacity:1" fill="#631823" d="M 320.5,136.5 C 340.366,136.196 349.2,145.863 347,165.5C 342.244,177.466 333.411,182.633 320.5,181C 304.16,174.151 299.66,162.651 307,146.5C 310.579,141.731 315.079,138.397 320.5,136.5 Z"/></g>
<g><path style="opacity:1" fill="#a77025" d="M 248.5,177.5 C 278.744,175.635 304.911,184.969 327,205.5C 334.277,215.471 334.277,225.471 327,235.5C 312.417,248.873 295.251,257.039 275.5,260C 259.461,263.802 244.461,261.468 230.5,253C 222.456,246.413 217.956,237.913 217,227.5C 214.042,202.023 224.542,185.357 248.5,177.5 Z"/></g>
<g><path style="opacity:1" fill="#edc565" d="M 250.5,201.5 C 268.515,200.337 285.182,204.504 300.5,214C 303.311,215.644 305.644,217.81 307.5,220.5C 305.423,223.374 302.756,225.541 299.5,227C 283.504,235.934 266.504,238.934 248.5,236C 242.312,232.295 239.645,226.795 240.5,219.5C 240.23,211.364 243.563,205.364 250.5,201.5 Z"/></g>
<g><path style="opacity:1" fill="#d23842" d="M 105.5,353.5 C 205.167,353.333 304.834,353.5 404.5,354C 408.219,355.263 410.719,357.763 412,361.5C 412.667,377.833 412.667,394.167 412,410.5C 411.052,415.237 408.219,418.071 403.5,419C 304.167,419.667 204.833,419.667 105.5,419C 102.243,416.98 100.076,414.146 99,410.5C 98.3333,394.167 98.3333,377.833 99,361.5C 100.479,358.172 102.645,355.506 105.5,353.5 Z"/></g>
<g><path style="opacity:1" fill="#d23842" d="M 311.5,443.5 C 330.5,443.5 349.5,443.5 368.5,443.5C 368.667,455.505 368.5,467.505 368,479.5C 366.833,483.333 364.333,485.833 360.5,487C 346.5,487.667 332.5,487.667 318.5,487C 316.376,485.878 314.543,484.378 313,482.5C 311.557,469.574 311.057,456.574 311.5,443.5 Z"/></g>
</svg>
